# xmcd
# 
# Track frame offsets:
#   150
#   15829
#   30761
#   48134
#   66073
#   80158
#   96924
#   110837
#   128619
#   148644
#   166300
#   182796
#   201694
#   220291
#   240299
# 
# Disc length: 3421 seconds
# 
# Revision: 2
# Processed by: cddbd v1.5.1PL2 Copyright (c) Steve Scherf et al.
# Submitted via: Synapstar 1.0 
# 
DISCID=c80d5b0f
DTITLE=Various Artist - MM6402
DYEAR=1900
DGENRE=Country
TTITLE0=Brooks and Dunn - You Can't Take The Honky Tonk Out Of The Girl
TTITLE1=Adkins, Trace - Hot Mama
TTITLE2=Evans, Sara - Perfect
TTITLE3=Paisley, Brad - Little Moments
TTITLE4=Nichols, Joe - Cool To Be A Fool
TTITLE5=Coffey, Kellie - Texas Plates
TTITLE6=Blue Country - Good Little Girls
TTITLE7=Otto, James - Days Of Our Lives
TTITLE8=Gill, Vince - Young Man's Town
TTITLE9=Twain, Shania - She's Not Just A Pretty Face
TTITLE10=McComas, Brian - You're In My Head
TTITLE11=Wynonna - Heaven Help Me
TTITLE12=Turner, Josh - Long Black Train
TTITLE13=Atkins, Rodney - Honestly (Write Me A List)
TTITLE14=McEntire, Reba - I'm Gonna Take That Mountain
EXTD=MediaType: Karaoke CD+G Producer: Music Maestro
EXTT0=
EXTT1=
EXTT2=
EXTT3=
EXTT4=
EXTT5=
EXTT6=
EXTT7=
EXTT8=
EXTT9=
EXTT10=
EXTT11=
EXTT12=
EXTT13=
EXTT14=
PLAYORDER=
